<?xml version="1.0" encoding="UTF-8"?>
<svg version="1.1" xmlns="http://www.w3.org/2000/svg" width="32" height="29">
<path d="M0 0 C4.40517287 2.19187694 7.1986887 5.43834591 9 10 C9.265625 12.62109375 9.265625 12.62109375 9.25 15.4375 C9.25773437 16.82775391 9.25773437 16.82775391 9.265625 18.24609375 C8.98451512 21.16054176 8.21247903 23.34890497 7 26 C7.66 26 8.32 26 9 26 C9 26.99 9 27.98 9 29 C5.40608886 27.66511872 2.24509304 26.03977277 -1 24 C-1.185625 24.639375 -1.37125 25.27875 -1.5625 25.9375 C-3 28 -3 28 -6.625 28.75 C-8.295625 28.87375 -8.295625 28.87375 -10 29 C-9 27 -8 25 -7 23 C-7.66 22.67 -8.32 22.34 -9 22 C-9.226875 22.598125 -9.45375 23.19625 -9.6875 23.8125 C-11.39310766 26.65517943 -13.00968056 27.60915375 -16 29 C-18.8125 29.1875 -18.8125 29.1875 -21 29 C-21.144375 28.21625 -21.28875 27.4325 -21.4375 26.625 C-21.87798925 24.03578982 -21.87798925 24.03578982 -23 22 C-23.67287171 16.6017338 -24.28580404 11.24174212 -21.5078125 6.3984375 C-15.22450544 -0.77131123 -9.39224311 -1.12036791 0 0 Z M-8 12 C-8.99 12.495 -8.99 12.495 -10 13 C-10.50241322 15.3295947 -10.50241322 15.3295947 -10 18 C-7.09587454 20.35322796 -7.09587454 20.35322796 -4 22 C-4 18.72724974 -4.29925156 16.153368 -5 13 C-5.99 12.67 -6.98 12.34 -8 12 Z " fill="#FEDE16" transform="translate(23,0)"/>
<path d="M0 0 C2.98704569 0.49784095 4.39324263 1.26216175 7 3 C7.93585937 2.72929687 7.93585937 2.72929687 8.890625 2.453125 C11 2 11 2 13.359375 3.109375 C14.14828125 3.65078125 14.9371875 4.1921875 15.75 4.75 C16.54921875 5.28109375 17.3484375 5.8121875 18.171875 6.359375 C18.77515625 6.90078125 19.3784375 7.4421875 20 8 C20 8.99 20 9.98 20 11 C16.40608886 9.66511872 13.24509304 8.03977277 10 6 C9.814375 6.639375 9.62875 7.27875 9.4375 7.9375 C8 10 8 10 4.375 10.75 C2.704375 10.87375 2.704375 10.87375 1 11 C2 9 3 7 4 5 C3.34 4.67 2.68 4.34 2 4 C1.6596875 4.8971875 1.6596875 4.8971875 1.3125 5.8125 C-0.39310766 8.65517943 -2.00968056 9.60915375 -5 11 C-7.8125 11.1875 -7.8125 11.1875 -10 11 C-8.85455923 7.56367769 -7.7288492 6.66528415 -5 4.375 C-4.278125 3.76398437 -3.55625 3.15296875 -2.8125 2.5234375 C-2.214375 2.02070313 -1.61625 1.51796875 -1 1 C-0.67 0.67 -0.34 0.34 0 0 Z " fill="#43B662" transform="translate(12,18)"/>
</svg>
